<?xml version="1.0" encoding="utf-8"?>
<!-- Generator: Adobe Illustrator 24.3.0, SVG Export Plug-In . SVG Version: 6.00 Build 0)  -->
<svg version="1.1" id="Layer_1" xmlns="http://www.w3.org/2000/svg" xmlns:xlink="http://www.w3.org/1999/xlink" x="0px" y="0px"
	 viewBox="0 0 100 100" style="enable-background:new 0 0 100 100;" xml:space="preserve">
<style type="text/css">
	.st0{opacity:8.000000e-02;}
	.st1{fill:#999999;}
	.st2{opacity:0.5;fill:#999999;stroke:#999999;stroke-miterlimit:10;}
</style>
<g class="st0">
	<path class="st1" d="M2.6,5.1L2.6,5.1C1.1,5.1,0,4,0,2.6v0C0,1.1,1.1,0,2.6,0h0C4,0,5.1,1.1,5.1,2.6v0C5.1,4,4,5.1,2.6,5.1z"/>
	<path class="st1" d="M50,52.6L50,52.6c-1.4,0-2.6-1.1-2.6-2.6v0c0-1.4,1.1-2.6,2.6-2.6h0c1.4,0,2.6,1.1,2.6,2.6v0
		C52.6,51.4,51.4,52.6,50,52.6z"/>
	<line class="st2" x1="-3.3" y1="3" x2="109" y2="3"/>
	<line class="st2" x1="3" y1="106.1" x2="3" y2="-6.1"/>
</g>
</svg>
