<svg width="38" height="38" viewBox="0 0 38 38" fill="none" xmlns="http://www.w3.org/2000/svg">
<path d="M20.8334 17.1667H33.575C33.1228 13.8056 31.7234 10.9579 29.3767 8.62341C27.0422 6.28897 24.1945 4.88953 20.8334 4.42508M17.1667 33.5751V4.42508C13.5 4.88953 10.4445 6.50286 8.00002 9.26508C5.55558 12.0273 4.33335 15.2723 4.33335 19.0001C4.33335 22.7279 5.55558 25.9729 8.00002 28.7351C10.4445 31.5095 13.5 33.1229 17.1667 33.5751ZM20.8334 33.5751C24.1945 33.1473 27.0545 31.7601 29.4134 29.4134C31.76 27.0545 33.1472 24.1945 33.575 20.8334H20.8334M19 37.3334C16.47 37.3334 14.0867 36.8506 11.85 35.8851C9.62558 34.9317 7.68835 33.6301 6.03835 31.9801C4.38835 30.3301 3.08058 28.3867 2.11502 26.1501C1.14946 23.9256 0.666687 21.5423 0.666687 19.0001C0.666687 16.4579 1.14946 14.0745 2.11502 11.8501C3.08058 9.62564 4.38835 7.68841 6.03835 6.03841C7.68835 4.38841 9.62558 3.08064 11.85 2.11508C14.0867 1.14953 16.47 0.666748 19 0.666748C21.53 0.666748 23.9072 1.14953 26.1317 2.11508C28.3439 3.08064 30.2811 4.39453 31.9434 6.05675C33.6178 7.71897 34.9317 9.65619 35.885 11.8684C36.8506 14.0929 37.3334 16.4701 37.3334 19.0001C37.3334 21.5056 36.8506 23.8767 35.885 26.1134C34.9317 28.3379 33.63 30.2812 31.98 31.9434C30.33 33.6179 28.3867 34.9317 26.15 35.8851C23.9256 36.8506 21.5422 37.3334 19 37.3334Z" fill="#AE3034"/>
</svg>
