<svg width="40" height="40" viewBox="0 0 40 40" fill="none" xmlns="http://www.w3.org/2000/svg">
<path d="M7.625 0.75C5.80164 0.75 4.05295 1.47433 2.76364 2.76364C1.47433 4.05295 0.75 5.80164 0.75 7.625V24.125C0.75 25.0278 0.927827 25.9218 1.27333 26.7559C1.61883 27.5901 2.12524 28.348 2.76364 28.9864C4.05295 30.2757 5.80164 31 7.625 31H15.875C16.2397 31 16.5894 30.8551 16.8473 30.5973C17.1051 30.3394 17.25 29.9897 17.25 29.625V17.25H29.625C29.9897 17.25 30.3394 17.1051 30.5973 16.8473C30.8551 16.5894 31 16.2397 31 15.875V7.625C31 6.72216 30.8222 5.82816 30.4767 4.99405C30.1312 4.15994 29.6248 3.40204 28.9864 2.76364C28.348 2.12524 27.5901 1.61883 26.7559 1.27333C25.9218 0.927827 25.0278 0.75 24.125 0.75H7.625ZM14.5 17.25V28.25H7.625C6.53098 28.25 5.48177 27.8154 4.70818 27.0418C3.9346 26.2682 3.5 25.219 3.5 24.125V17.25H14.5ZM14.5 14.5H3.5V7.625C3.5 6.53098 3.9346 5.48177 4.70818 4.70818C5.48177 3.9346 6.53098 3.5 7.625 3.5H14.5V14.5ZM17.25 14.5V3.5H24.125C25.219 3.5 26.2682 3.9346 27.0418 4.70818C27.8154 5.48177 28.25 6.53098 28.25 7.625V14.5H17.25ZM21.375 26.1875C21.375 23.531 23.531 21.375 26.1875 21.375H34.4375C37.094 21.375 39.25 23.531 39.25 26.1875V34.4375C39.25 35.7139 38.743 36.9379 37.8405 37.8405C36.9379 38.743 35.7139 39.25 34.4375 39.25H26.1875C24.9111 39.25 23.6871 38.743 22.7845 37.8405C21.882 36.9379 21.375 35.7139 21.375 34.4375V26.1875Z" fill="#AE3034"/>
</svg>
