<svg width="40" height="42" viewBox="0 0 40 42" fill="none" xmlns="http://www.w3.org/2000/svg">
<path d="M31.912 38.544L37.282 19.544C37.3661 19.2464 37.3801 18.9333 37.3228 18.6294C37.2654 18.3254 37.1384 18.0389 36.9517 17.7924C36.7649 17.5458 36.5235 17.346 36.2465 17.2085C35.9694 17.071 35.6643 16.9996 35.355 17H23.875C23.7104 17 23.548 16.9629 23.3997 16.8914C23.2515 16.8199 23.1213 16.7159 23.0188 16.5871C22.9164 16.4583 22.8443 16.308 22.808 16.1475C22.7716 15.987 22.772 15.8204 22.809 15.66L23.309 13.496C23.767 11.511 23.914 9.466 23.745 7.436L23.653 6.333C23.5544 5.14969 23.0396 4.03962 22.2 3.2C21.432 2.43181 20.3903 2.00016 19.304 2H19.064C18.407 2 17.802 2.356 17.484 2.93L14.825 7.715C13.633 9.86102 11.8561 11.6244 9.701 12.8L3.042 16.43C2.7263 16.6023 2.46289 16.8565 2.27951 17.1659C2.09614 17.4752 1.99958 17.8284 2 18.188V38C2 38.5304 2.21072 39.0391 2.58579 39.4142C2.96086 39.7893 3.46957 40 4 40H29.987C30.4225 39.9999 30.846 39.8576 31.1933 39.5948C31.5406 39.332 31.7935 38.9631 31.912 38.544Z" stroke="#AE3034" stroke-width="4" stroke-linecap="round" stroke-linejoin="round"/>
</svg>
