<?xml version="1.0" encoding="utf-8"?>
<!-- Generator: Adobe Illustrator 24.3.0, SVG Export Plug-In . SVG Version: 6.00 Build 0)  -->
<svg version="1.1" id="Layer_1" xmlns="http://www.w3.org/2000/svg" xmlns:xlink="http://www.w3.org/1999/xlink" x="0px" y="0px"
	 viewBox="0 0 42 26.6" style="enable-background:new 0 0 42 26.6;" xml:space="preserve">
<style type="text/css">
	.st0{fill:#AE3034;}
</style>
<path class="st0" d="M37.5,4.3c-2.7,0-4.1,2.6-3.5,4.6l-6.5,6.5c-0.5-0.2-1.4-0.2-1.9,0l-4.7-4.7c0.6-2-0.9-4.6-3.5-4.6
	c-2.7,0-4.2,2.6-3.5,4.6l-8.4,8.3c-2-0.6-4.6,0.9-4.6,3.5c0,2,1.6,3.7,3.7,3.7c2.7,0,4.1-2.6,3.5-4.6l8.3-8.4c0.6,0.2,1.4,0.2,1.9,0
	L23,18c-0.6,2,0.9,4.6,3.5,4.6c2.7,0,4.2-2.6,3.5-4.6l6.5-6.5c2,0.6,4.6-0.9,4.6-3.5C41.2,5.9,39.5,4.3,37.5,4.3z"/>
<g>
	<path class="st0" d="M27.1,11.2l1.5-3.4L32,6.3l-3.4-1.5l-1.5-3.4l-1.5,3.4l-3.4,1.5l3.4,1.5L27.1,11.2z M8.4,14.4l0.8-3.3l3.3-0.8
		L9.3,9.5L8.4,6.3L7.6,9.5l-3.3,0.8l3.3,0.8L8.4,14.4z"/>
</g>
</svg>
