<svg width="38" height="38" viewBox="0 0 38 38" fill="none" xmlns="http://www.w3.org/2000/svg">
<path d="M31.9617 6.03841L29.3767 8.62341C32.1241 11.3779 33.6669 15.1096 33.6667 19.0001C33.6667 27.1034 27.1034 33.6667 19 33.6667C10.8967 33.6667 4.33335 27.1034 4.33335 19.0001C4.33335 11.5201 9.92502 5.36008 17.1667 4.46175V8.16508C11.96 9.04508 8.00002 13.5551 8.00002 19.0001C8.00002 25.0684 12.9317 30.0001 19 30.0001C25.0684 30.0001 30 25.0684 30 19.0001C30 15.9567 28.7717 13.2067 26.7734 11.2267L24.1884 13.8117C25.5084 15.1501 26.3334 16.9834 26.3334 19.0001C26.3334 23.0517 23.0517 26.3334 19 26.3334C14.9484 26.3334 11.6667 23.0517 11.6667 19.0001C11.6667 15.5901 14.0134 12.7484 17.1667 11.9234V15.8467C16.0667 16.4884 15.3334 17.6434 15.3334 19.0001C15.3334 21.0167 16.9834 22.6667 19 22.6667C21.0167 22.6667 22.6667 21.0167 22.6667 19.0001C22.6667 17.6434 21.9334 16.4701 20.8334 15.8467V0.666748H19C8.88002 0.666748 0.666687 8.88008 0.666687 19.0001C0.666687 29.1201 8.88002 37.3334 19 37.3334C29.12 37.3334 37.3334 29.1201 37.3334 19.0001C37.3334 13.9401 35.28 9.35675 31.9617 6.03841Z" fill="#AE3034"/>
</svg>
