<svg width="34" height="38" viewBox="0 0 34 38" fill="none" xmlns="http://www.w3.org/2000/svg">
<path d="M0.5 37.3334V0.666748L3.25 3.41675L6 0.666748L8.75 3.41675L11.5 0.666748L14.25 3.41675L17 0.666748L19.75 3.41675L22.5 0.666748L25.25 3.41675L28 0.666748L30.75 3.41675L33.5 0.666748V37.3334L30.75 34.5834L28 37.3334L25.25 34.5834L22.5 37.3334L19.75 34.5834L17 37.3334L14.25 34.5834L11.5 37.3334L8.75 34.5834L6 37.3334L3.25 34.5834L0.5 37.3334ZM6 28.1667H28V24.5001H6V28.1667ZM6 20.8334H28V17.1667H6V20.8334ZM6 13.5001H28V9.83342H6V13.5001ZM4.16667 32.0168H29.8333V5.98342H4.16667V32.0168Z" fill="#AE3034"/>
</svg>
