<svg width="36" height="33" viewBox="0 0 36 33" fill="none" xmlns="http://www.w3.org/2000/svg">
<path d="M34.5 29.375H33.125V1.875C33.125 1.51033 32.9801 1.16059 32.7223 0.902728C32.4644 0.644866 32.1147 0.5 31.75 0.5H22.125C21.7603 0.5 21.4106 0.644866 21.1527 0.902728C20.8949 1.16059 20.75 1.51033 20.75 1.875V8.75H12.5C12.1353 8.75 11.7856 8.89487 11.5277 9.15273C11.2699 9.41059 11.125 9.76033 11.125 10.125V17H4.25C3.88533 17 3.53559 17.1449 3.27773 17.4027C3.01987 17.6606 2.875 18.0103 2.875 18.375V29.375H1.5C1.13533 29.375 0.785591 29.5199 0.527728 29.7777C0.269866 30.0356 0.125 30.3853 0.125 30.75C0.125 31.1147 0.269866 31.4644 0.527728 31.7223C0.785591 31.9801 1.13533 32.125 1.5 32.125H34.5C34.8647 32.125 35.2144 31.9801 35.4723 31.7223C35.7301 31.4644 35.875 31.1147 35.875 30.75C35.875 30.3853 35.7301 30.0356 35.4723 29.7777C35.2144 29.5199 34.8647 29.375 34.5 29.375ZM23.5 3.25H30.375V29.375H23.5V3.25ZM13.875 11.5H20.75V29.375H13.875V11.5ZM5.625 19.75H11.125V29.375H5.625V19.75Z" fill="#AE3034"/>
</svg>
