<svg width="34" height="30" viewBox="0 0 34 30" fill="none" xmlns="http://www.w3.org/2000/svg">
<path d="M18.8281 0L9.82812 9H0.828125V21H9.82812L18.8281 30V0ZM23.6525 2.59387L23.2156 4.22391C28.0968 5.53172 31.4844 9.94641 31.4844 15C31.4844 20.0535 28.0968 24.4682 23.2156 25.7761L23.6525 27.4061C29.2634 25.9027 33.1719 20.8089 33.1719 15C33.1719 9.19097 29.2634 4.09734 23.6525 2.59387ZM22.4877 6.94059L22.051 8.57063C24.965 9.35137 26.9844 11.9833 26.9844 15C26.9844 18.0167 24.965 20.6486 22.051 21.4294L22.4877 23.0594C26.1314 22.083 28.6719 18.7722 28.6719 15C28.6719 11.2277 26.1314 7.917 22.4877 6.94059ZM21.3229 11.2871L20.8863 12.9172C21.8328 13.1709 22.4844 14.02 22.4844 15C22.4844 15.98 21.8328 16.8291 20.8862 17.0828L21.3229 18.7129C22.9995 18.2636 24.172 16.7357 24.172 15C24.172 13.2644 22.9995 11.7364 21.3229 11.2871Z" fill="#AE3034"/>
</svg>
