<?xml version="1.0" encoding="utf-8"?>
<!-- Generator: Adobe Illustrator 24.3.0, SVG Export Plug-In . SVG Version: 6.00 Build 0)  -->
<svg version="1.1" id="Layer_1" xmlns="http://www.w3.org/2000/svg" xmlns:xlink="http://www.w3.org/1999/xlink" x="0px" y="0px"
	 viewBox="0 0 70 70" style="enable-background:new 0 0 70 70;" xml:space="preserve">
<style type="text/css">
	.st0{fill:url(#SVGID_1_);}
	.st1{fill:none;stroke:#FFFFFF;stroke-width:4;stroke-linecap:round;stroke-linejoin:round;stroke-miterlimit:10;}
	.st2{fill:#FFFFFF;stroke:#000000;stroke-miterlimit:10;}
</style>
<linearGradient id="SVGID_1_" gradientUnits="userSpaceOnUse" x1="18.8461" y1="64.2055" x2="50.9889" y2="6.9912">
	<stop  offset="0" style="stop-color:#EE9438"/>
	<stop  offset="0.5441" style="stop-color:#F7C47E"/>
	<stop  offset="1" style="stop-color:#D97D35"/>
</linearGradient>
<path class="st0" d="M37.3,8.5l4.8,7.2c0.5,0.7,1.3,1.1,2.2,0.9l8.5-1.7c1.5-0.3,2.8,1,2.5,2.5l-1.7,8.5c-0.2,0.8,0.2,1.7,0.9,2.2
	l7.2,4.8c1.3,0.8,1.3,2.7,0,3.5l-7.2,4.8c-0.7,0.5-1.1,1.3-0.9,2.2l1.7,8.5c0.3,1.5-1,2.8-2.5,2.5l-8.5-1.7
	c-0.8-0.2-1.7,0.2-2.2,0.9l-4.8,7.2c-0.8,1.3-2.7,1.3-3.5,0L29,53.4c-0.5-0.7-1.3-1.1-2.2-0.9l-8.5,1.7c-1.5,0.3-2.8-1-2.5-2.5
	l1.7-8.5c0.2-0.8-0.2-1.7-0.9-2.2l-7.2-4.8c-1.3-0.8-1.3-2.7,0-3.5l7.2-4.8c0.7-0.5,1.1-1.3,0.9-2.2l-1.7-8.5
	c-0.3-1.5,1-2.8,2.5-2.5l8.5,1.7c0.8,0.2,1.7-0.2,2.2-0.9l4.8-7.2C34.6,7.2,36.4,7.2,37.3,8.5z"/>
<polyline class="st1" points="24.5,33.8 31.4,41.6 46.6,27.5 "/>
<polygon class="st2" points="-51.1,-45.7 -43.7,-34.7 -30.8,-37.3 -33.4,-24.4 -22.4,-17 -33.4,-9.7 -30.8,3.2 -43.7,0.6 
	-51.1,11.6 -58.4,0.6 -71.4,3.2 -68.7,-9.7 -79.8,-17 -68.7,-24.4 -71.4,-37.3 -58.4,-34.7 "/>
</svg>
